<svg width="1479" height="500" viewBox="0 0 1479 500" fill="none" xmlns="http://www.w3.org/2000/svg">
<path d="M159.249 500C141.79 500 126.337 497.696 112.89 493.088C99.6779 488.26 88.4715 481.567 79.2705 473.009C70.3053 464.231 63.4636 453.698 58.7451 441.409C54.0266 429.12 51.6673 415.405 51.6673 400.263V223.831H20.5254C14.8632 223.831 10.0268 222.186 6.01606 218.894C2.00535 215.383 0 210.336 0 203.752V163.924L58.3912 153.39L79.9782 70.1119C82.8093 59.5786 90.8307 54.312 104.042 54.312H161.372V154.049H252.321V223.831H161.372V393.351C161.372 401.251 163.377 407.834 167.388 413.101C171.635 418.148 177.651 420.671 185.436 420.671C189.447 420.671 192.75 420.342 195.345 419.684C198.176 418.806 200.535 417.928 202.423 417.051C204.546 415.953 206.433 415.076 208.085 414.417C209.972 413.54 212.096 413.101 214.455 413.101C217.758 413.101 220.353 413.869 222.24 415.405C224.364 416.721 226.487 418.916 228.61 421.988L261.876 470.375C247.72 480.25 231.795 487.711 214.101 492.758C196.407 497.586 178.123 500 159.249 500Z" fill="white"/>
<path d="M478.387 283.081C478.387 274.962 477.208 267.062 474.849 259.381C472.725 251.701 469.068 244.898 463.878 238.973C458.924 232.829 452.318 227.891 444.061 224.161C435.803 220.43 425.776 218.565 413.98 218.565C393.219 218.565 376.94 224.161 365.144 235.352C353.348 246.324 345.562 262.234 341.787 283.081H478.387ZM340.372 342.33C343.911 370.858 353.23 391.595 368.329 404.542C383.428 417.27 402.892 423.634 426.72 423.634C439.46 423.634 450.43 422.208 459.631 419.355C468.833 416.502 476.972 413.32 484.05 409.809C491.363 406.298 497.969 403.116 503.867 400.263C510.001 397.411 516.371 395.984 522.977 395.984C531.706 395.984 538.312 398.947 542.795 404.872L574.644 441.409C563.32 453.478 551.052 463.353 537.84 471.034C524.865 478.495 511.417 484.42 497.497 488.808C483.814 492.978 470.012 495.831 456.093 497.367C442.409 499.122 429.315 500 416.811 500C391.096 500 366.913 496.16 344.265 488.479C321.852 480.579 302.152 468.949 285.166 453.588C268.415 438.227 255.085 419.135 245.177 396.313C235.504 373.491 230.667 346.939 230.667 316.656C230.667 293.834 234.796 272.219 243.053 251.81C251.547 231.402 263.579 213.518 279.15 198.157C294.957 182.796 313.948 170.617 336.125 161.619C358.538 152.622 383.782 148.124 411.857 148.124C436.157 148.124 458.334 151.635 478.387 158.657C498.677 165.679 516.017 175.883 530.409 189.269C545.036 202.655 556.36 219.113 564.382 238.644C572.639 257.955 576.768 279.899 576.768 304.477C576.768 312.157 576.414 318.411 575.706 323.239C574.998 328.067 573.701 331.907 571.813 334.76C569.926 337.612 567.331 339.587 564.028 340.685C560.961 341.782 556.95 342.33 551.996 342.33H340.372Z" fill="white"/>
<path d="M697.841 153.39V494.733H588.136V153.39H697.841ZM709.165 59.9078C709.165 68.0272 707.396 75.7077 703.857 82.9493C700.318 89.9714 695.482 96.2256 689.348 101.712C683.214 106.978 676.018 111.257 667.761 114.549C659.739 117.621 651.128 119.157 641.927 119.157C632.962 119.157 624.587 117.621 616.801 114.549C609.016 111.257 602.056 106.978 595.922 101.712C590.024 96.2256 585.305 89.9714 581.766 82.9493C578.463 75.7077 576.812 68.0272 576.812 59.9078C576.812 51.569 578.463 43.7788 581.766 36.5372C585.305 29.2956 590.024 22.9317 595.922 17.4457C602.056 11.9596 609.016 7.68048 616.801 4.60827C624.587 1.53609 632.962 0 641.927 0C651.128 0 659.739 1.53609 667.761 4.60827C676.018 7.68048 683.214 11.9596 689.348 17.4457C695.482 22.9317 700.318 29.2956 703.857 36.5372C707.396 43.7788 709.165 51.569 709.165 59.9078Z" fill="white"/>
<path d="M838.052 1.97496V494.733H728.347V1.97496H838.052Z" fill="white"/>
<path d="M975.901 1.97496V494.733H866.197V1.97496H975.901Z" fill="white"/>
<path d="M1173.2 148.124C1201.04 148.124 1226.4 152.183 1249.29 160.303C1272.17 168.422 1291.76 180.053 1308.03 195.194C1324.55 210.336 1337.29 228.769 1346.25 250.494C1355.46 271.999 1360.06 296.247 1360.06 323.239C1360.06 350.45 1355.46 375.027 1346.25 396.972C1337.29 418.696 1324.55 437.239 1308.03 452.6C1291.76 467.742 1272.17 479.482 1249.29 487.821C1226.4 495.94 1201.04 500 1173.2 500C1145.13 500 1119.53 495.94 1096.41 487.821C1073.53 479.482 1053.71 467.742 1036.96 452.6C1020.44 437.239 1007.59 418.696 998.384 396.972C989.419 375.027 984.936 350.45 984.936 323.239C984.936 296.247 989.419 271.999 998.384 250.494C1007.59 228.769 1020.44 210.336 1036.96 195.194C1053.71 180.053 1073.53 168.422 1096.41 160.303C1119.53 152.183 1145.13 148.124 1173.2 148.124ZM1173.2 424.292C1198.45 424.292 1216.97 416.063 1228.76 399.605C1240.8 382.927 1246.81 357.691 1246.81 323.897C1246.81 290.103 1240.8 264.977 1228.76 248.519C1216.97 232.061 1198.45 223.831 1173.2 223.831C1147.25 223.831 1128.26 232.061 1116.23 248.519C1104.2 264.977 1098.18 290.103 1098.18 323.897C1098.18 357.691 1104.2 382.927 1116.23 399.605C1128.26 416.063 1147.25 424.292 1173.2 424.292Z" fill="white"/>
<path d="M1354.43 443.055C1354.43 435.155 1355.97 427.803 1359.03 421.001C1362.34 414.198 1366.7 408.273 1372.13 403.226C1377.79 398.179 1384.39 394.229 1391.94 391.376C1399.49 388.304 1407.75 386.768 1416.72 386.768C1425.45 386.768 1433.58 388.304 1441.13 391.376C1448.68 394.229 1455.29 398.179 1460.95 403.226C1466.61 408.273 1470.98 414.198 1474.05 421.001C1477.35 427.803 1479 435.155 1479 443.055C1479 450.955 1477.35 458.416 1474.05 465.438C1470.98 472.24 1466.61 478.165 1460.95 483.213C1455.29 488.26 1448.68 492.21 1441.13 495.063C1433.58 497.915 1425.45 499.342 1416.72 499.342C1407.75 499.342 1399.49 497.915 1391.94 495.063C1384.39 492.21 1377.79 488.26 1372.13 483.213C1366.7 478.165 1362.34 472.24 1359.03 465.438C1355.97 458.416 1354.43 450.955 1354.43 443.055Z" fill="white"/>
</svg>
